<svg id="Capa_1" data-name="Capa 1" xmlns="http://www.w3.org/2000/svg" viewBox="0 0 105.8 70.2"><defs><style>.cls-1{fill:#fff;}</style></defs><g id="Grupo_107" data-name="Grupo 107"><path id="Trazado_67" data-name="Trazado 67" class="cls-1" d="M30.36,55.19a7.67,7.67,0,0,1,3.92,1.68,6.87,6.87,0,0,1,2.47,5c.07,1,0,2,0,2.94,0,.41-.16.49-.52.48q-6.52,0-13,0c-.24,0-.52,0-.51-.35A19.81,19.81,0,0,1,23,60.35a7,7,0,0,1,5.6-5,4.9,4.9,0,0,0,.55-.13A1.14,1.14,0,0,1,30.36,55.19Z"/><path id="Trazado_68" data-name="Trazado 68" class="cls-1" d="M52.47,55.19a7.67,7.67,0,0,1,3.92,1.68,6.9,6.9,0,0,1,2.47,5c.07,1,0,2,0,2.94,0,.41-.15.49-.52.48q-6.52,0-13,0c-.24,0-.52,0-.51-.35a19.81,19.81,0,0,1,.26-4.55,7,7,0,0,1,5.6-5,4.9,4.9,0,0,0,.55-.13A1.14,1.14,0,0,1,52.47,55.19Z"/><path id="Trazado_69" data-name="Trazado 69" class="cls-1" d="M74.58,55.19a7.68,7.68,0,0,1,3.91,1.68,6.91,6.91,0,0,1,2.48,5c.07,1,0,2,0,2.94,0,.41-.15.49-.51.48q-6.53,0-13,0c-.25,0-.53,0-.51-.35a19.81,19.81,0,0,1,.25-4.55,7,7,0,0,1,5.61-5c.18,0,.36-.08.55-.13A1.1,1.1,0,0,1,74.58,55.19Z"/><path id="Trazado_70" data-name="Trazado 70" class="cls-1" d="M30.36,55.19H29.11a4.24,4.24,0,0,1-2.86-2,3.86,3.86,0,0,1,.34-4.46,3.79,3.79,0,0,1,4.19-1.39,3.73,3.73,0,0,1,2.86,3A3.9,3.9,0,0,1,30.78,55a2,2,0,0,1-.26.06A.83.83,0,0,0,30.36,55.19Z"/><path id="Trazado_71" data-name="Trazado 71" class="cls-1" d="M52.47,55.19H51.22a4.26,4.26,0,0,1-2.87-2,3.84,3.84,0,0,1,.35-4.46,3.79,3.79,0,0,1,4.19-1.39,3.72,3.72,0,0,1,2.85,3A3.89,3.89,0,0,1,52.89,55l-.26.06A.51.51,0,0,0,52.47,55.19Z"/><path id="Trazado_72" data-name="Trazado 72" class="cls-1" d="M74.58,55.19H73.33a4.26,4.26,0,0,1-2.87-2,3.84,3.84,0,0,1,.35-4.46A3.79,3.79,0,0,1,75,47.31a3.72,3.72,0,0,1,2.85,3A3.89,3.89,0,0,1,75,55l-.27.06Z"/><path id="Trazado_73" data-name="Trazado 73" class="cls-1" d="M28.73,19c0-1,0-1,1-1s1,0,1,1.05,0,1-1,1S28.73,20,28.73,19Z"/><path id="Trazado_74" data-name="Trazado 74" class="cls-1" d="M33.78,18c1,0,1,0,1,1s0,1.05-1,1.05-1,0-1-1S32.75,18,33.78,18Z"/><path id="Trazado_75" data-name="Trazado 75" class="cls-1" d="M70.94,19c0,1,0,1-1,1s-1,0-1-1,0-1,1-1S70.94,18,70.94,19Z"/><path id="Trazado_76" data-name="Trazado 76" class="cls-1" d="M75,19.08c0,1,0,1-.94,1S73,20,73,19s0-.95.94-.95S75,18,75,19.08Z"/><path id="Trazado_77" data-name="Trazado 77" class="cls-1" d="M29.69,24.05c-1,0-1,0-1-1s0-1,1-1,1,0,1,1S30.74,24.05,29.69,24.05Z"/><path id="Trazado_78" data-name="Trazado 78" class="cls-1" d="M73.93,24.05c-1,0-1,0-1-1s0-1,1-1,1,0,1,1S75,24.05,73.93,24.05Z"/><path id="Trazado_79" data-name="Trazado 79" class="cls-1" d="M29.73,28.07c-1,0-1,0-1-1.2,0-.81,0-.81,1.27-.81.74,0,.74,0,.74,1.27C30.74,28.07,30.74,28.07,29.73,28.07Z"/><path id="Trazado_80" data-name="Trazado 80" class="cls-1" d="M75,27.09c0,1,0,1-1,1s-1,0-1-1,0-1,1-1S75,26.06,75,27.09Z"/><path id="Trazado_81" data-name="Trazado 81" class="cls-1" d="M29.76,30.08c1,0,1,0,1,1s0,1.05-1,1.05-1,0-1-1S28.73,30.08,29.76,30.08Z"/><path id="Trazado_82" data-name="Trazado 82" class="cls-1" d="M74,32.09c-1,0-1,0-1-1s0-1,1-1,1,0,1,1S75,32.09,74,32.09Z"/><path id="Trazado_83" data-name="Trazado 83" class="cls-1" d="M30.74,35.14c0,1,0,1-1,1s-1,0-1-1,0-1,1-1S30.74,34.1,30.74,35.14Z"/><path id="Trazado_84" data-name="Trazado 84" class="cls-1" d="M75,35.13c0,1,0,1-1,1s-1,0-1-1,0-1,1-1S75,34.1,75,35.13Z"/><path id="Trazado_85" data-name="Trazado 85" class="cls-1" d="M52.85,37.12c0,1,0,1-1.2,1-.81,0-.81,0-.81-1.26,0-.75,0-.75,1.33-.75C52.85,36.11,52.85,36.11,52.85,37.12Z"/><path id="Trazado_86" data-name="Trazado 86" class="cls-1" d="M29.78,38.12c1,0,1,0,1,1s0,1-1,1-1,0-1-1S28.73,38.12,29.78,38.12Z"/><path id="Trazado_87" data-name="Trazado 87" class="cls-1" d="M74,38.12c1,0,1,0,1,1s0,1.05-1,1.05-1,0-1-1S73,38.12,74,38.12Z"/><path id="Trazado_88" data-name="Trazado 88" class="cls-1" d="M51.87,40.13c1,0,1,0,1,1s0,1-1,1-1,0-1-1S50.84,40.13,51.87,40.13Z"/><path id="Trazado_89" data-name="Trazado 89" class="cls-1" d="M65.91,17.55c0-.5.22-1.12-.1-1.45S64.89,16,64.42,16a1.09,1.09,0,0,1-1.14-.79,3.91,3.91,0,0,0-.27-.7,1.94,1.94,0,0,1,.18-2.73,1.82,1.82,0,0,1,.41-.27c.34-.24.25-.42,0-.68-1-1-1.95-1.95-2.93-2.91-.33-.32-.6-.89-1-.86s-.66.53-1,.84a1.21,1.21,0,0,1-1.58.28l-.57-.26c-1.66-.65-1.73-.42-1.68-2.47,0-.41-.11-.53-.52-.52-1.4,0-2.8,0-4.2,0s-1.3,0-1.31,1.28c0,.9-.16,1.13-1,1.44a3,3,0,0,0-.53.19,1.9,1.9,0,0,1-2.68-.19,1.66,1.66,0,0,1-.26-.39c-.23-.32-.4-.3-.68,0-1,1-2,2.05-3.06,3.08-.85.85-.85.85,0,1.73.66.67.71.94.32,1.78a2.31,2.31,0,0,0-.22.51A1.86,1.86,0,0,1,38.3,16c-.47-.08-.54.16-.54.57,0,1.31,0,2.63,0,4,0,.48-.14,1.09.1,1.4s.9.11,1.37.11a1.1,1.1,0,0,1,1.18.82,3,3,0,0,0,.27.7,1.91,1.91,0,0,1-.19,2.68,2.7,2.7,0,0,1-.39.27c-.37.26-.25.45,0,.72,1,1,2,2,3,3s.91.91,1.82,0a1.22,1.22,0,0,1,1.67-.34l.06,0a1.59,1.59,0,0,0,.4.18,2,2,0,0,1,1.87,2.08,2.36,2.36,0,0,1-.1.53c-.06.33.1.43.42.42.86,0,1.72,0,2.57,0h1.57c1.44,0,1.45,0,1.46-1.44a1.13,1.13,0,0,1,.86-1.22,4.19,4.19,0,0,0,.59-.22c1.83-.86,1.76-.74,3,.59.25.25.39.26.64,0,1-1,2-2,2.92-2.94.33-.33.86-.64.9-1s-.54-.68-.87-1a1.23,1.23,0,0,1-.26-1.59,5,5,0,0,0,.27-.57C63.58,22,63.46,22,65.41,22c.44,0,.52-.15.5-.54C65.9,20.19,65.92,18.87,65.91,17.55ZM51.82,27.06a8,8,0,1,1,8.06-8v0A8,8,0,0,1,51.82,27.06Z"/><path id="Trazado_90" data-name="Trazado 90" class="cls-1" d="M49.88,15l5.68,3.78c.22.15.23.27,0,.42L49.87,23Z"/></g></svg>