<svg id="Capa_1" data-name="Capa 1" xmlns="http://www.w3.org/2000/svg" viewBox="0 0 64.8 58.64"><defs><style>.cls-1{opacity:0.7;}.cls-2{fill:#fff;}</style></defs><g id="ICONO_USUARIO" data-name="ICONO USUARIO" class="cls-1"><path id="Trazado_13" data-name="Trazado 13" class="cls-2" d="M30.71,49a3.41,3.41,0,0,0-1.18-.21A19.79,19.79,0,0,1,23,46.71,20.66,20.66,0,0,1,15,39.33,1.25,1.25,0,0,1,15,38a12.66,12.66,0,0,1,9.66-7.15,1.9,1.9,0,0,1,1.44.36A10.52,10.52,0,0,0,29.91,33a10.68,10.68,0,0,0,8.61-1.61,2.56,2.56,0,0,1,2.06-.43,12.68,12.68,0,0,1,9.29,7.13,1,1,0,0,1-.06,1.08,20.7,20.7,0,0,1-8,7.54,19.72,19.72,0,0,1-7.14,2.2,2.18,2.18,0,0,0-.84.14h-.23c-.05,0-.11,0-.17,0H33a.23.23,0,0,0-.18,0H31.78s-.11,0-.17,0h-.42c-.06,0-.13,0-.17,0Z"/><path id="Trazado_14" data-name="Trazado 14" class="cls-2" d="M32.4,30.08A10.23,10.23,0,1,1,42.63,19.85h0A10.28,10.28,0,0,1,32.4,30.08Z"/></g></svg>