<svg id="Capa_1" data-name="Capa 1" xmlns="http://www.w3.org/2000/svg" viewBox="0 0 105.8 70.2"><defs><style>.cls-1{opacity:0.5;}.cls-2{fill:#fff;}</style></defs><g id="Grupo_108" data-name="Grupo 108" class="cls-1"><path id="Trazado_91" data-name="Trazado 91" class="cls-2" d="M83.11,9.39A5.29,5.29,0,0,0,77.52,5H21A5.36,5.36,0,0,0,15.2,9.86a6,6,0,0,0,0,.85V47c0,3.58,2.22,5.8,5.78,5.8H41.89c-.49,1.48-1,2.9-1.41,4.33-.09.28-.3.28-.5.34a4,4,0,0,0,1.07,7.82q8.13,0,16.27,0a4,4,0,0,0,1.1-7.82c-.22-.07-.41-.09-.5-.36-.44-1.42-.91-2.84-1.4-4.31H77.71a5.34,5.34,0,0,0,5.34-4c0-.12,0-.28.15-.34V9.47S83.12,9.42,83.11,9.39Zm-5.66,40.7H21q-3.09,0-3.09-3.11V10.67A2.73,2.73,0,0,1,20.2,7.61a2.89,2.89,0,0,1,.72,0H77.49A2.72,2.72,0,0,1,80.54,10a3,3,0,0,1,0,.73V47c0,2.07-1,3.1-3.09,3.1Z"/><path id="Trazado_92" data-name="Trazado 92" class="cls-2" d="M49.13,62.6h-8a1.33,1.33,0,0,1-.46-2.6,2,2,0,0,1,.59,0H57.1c1,0,1.55.49,1.55,1.32s-.57,1.33-1.55,1.33Z"/><path id="Trazado_93" data-name="Trazado 93" class="cls-2" d="M55.18,57.27h-12c.47-1.45.93-2.87,1.38-4.29.09-.26.29-.22.49-.22h8.23a.46.46,0,0,1,.53.36C54.27,54.47,54.72,55.83,55.18,57.27Z"/><path id="Trazado_94" data-name="Trazado 94" class="cls-2" d="M49.21,11c8.06,0,16.11.05,24.17,0a3.57,3.57,0,0,1,3.76,3.37,2.16,2.16,0,0,1,0,.36c0,9.41,0,18.81,0,28.22,0,2.42-1.3,3.71-3.74,3.72H55.58a3.48,3.48,0,0,1-.72,0,1.31,1.31,0,0,1-1-1.3A1.32,1.32,0,0,1,55,44a4.51,4.51,0,0,1,.73,0H73.35c1,0,1.11-.1,1.11-1.1V14.76c0-1-.1-1.07-1.07-1.07H25c-.93,0-1,.11-1,1V42.94C24,43.9,24.06,44,25,44H42.74a4.51,4.51,0,0,1,.73,0,1.32,1.32,0,0,1,1.09,1.38,1.29,1.29,0,0,1-1.23,1.24H24.8a3.32,3.32,0,0,1-3.42-2.48,4.72,4.72,0,0,1-.1-1.12V14.65A3.31,3.31,0,0,1,24.23,11a3.86,3.86,0,0,1,.68,0Z"/><path id="Trazado_95" data-name="Trazado 95" class="cls-2" d="M67.61,41.74a1.62,1.62,0,0,1-1.09-.56c-1-1-2-1.92-2.9-2.91-.37-.39-.63-.49-.95,0a.43.43,0,0,1-.1.09c-1,1-2.12.7-2.48-.65q-.95-3.48-1.87-7c-.21-.79-.44-1.57-.64-2.36-.32-1.29.49-2.1,1.78-1.76q4.7,1.23,9.39,2.52a1.33,1.33,0,0,1,1.17,1.49,1.35,1.35,0,0,1-.49.88c-.63.67-.63.67,0,1.32.91.9,1.82,1.8,2.72,2.72a1.33,1.33,0,0,1,.32,1.87,1.26,1.26,0,0,1-.3.31C71,38.89,69.86,40,68.71,41.2A1.59,1.59,0,0,1,67.61,41.74Z"/><path id="Trazado_96" data-name="Trazado 96" class="cls-2" d="M34.55,27.38c-1.15,0-2.3,0-3.45,0a3.31,3.31,0,0,1-3.4-3.25V24c0-1.44,0-2.87,0-4.31a3.2,3.2,0,0,1,3.07-3.33h0q3.81-.12,7.62,0a3.2,3.2,0,0,1,3.08,3.28q0,2.19,0,4.38a3.33,3.33,0,0,1-3.29,3.37h-.07C36.93,27.4,35.74,27.38,34.55,27.38Z"/><path id="Trazado_97" data-name="Trazado 97" class="cls-2" d="M34.61,40.44a5.53,5.53,0,1,1,5.52-5.53h0A5.54,5.54,0,0,1,34.61,40.44Z"/><path id="Trazado_98" data-name="Trazado 98" class="cls-2" d="M48.78,20.51H44.93c-1,0-1.57-.54-1.56-1.34a1.39,1.39,0,0,1,1.43-1.33h.09q3.91,0,7.83,0a1.36,1.36,0,0,1,1.51,1.2.45.45,0,0,1,0,.11c0,.81-.59,1.34-1.55,1.35Z"/><path id="Trazado_99" data-name="Trazado 99" class="cls-2" d="M48.77,25.82H44.85a1.34,1.34,0,0,1-1.47-1.19.71.71,0,0,1,0-.14,1.38,1.38,0,0,1,1.41-1.32h0c2.65,0,5.31,0,8,0a1.36,1.36,0,0,1,1.45,1.26v.06a1.33,1.33,0,0,1-1.32,1.34H48.77Z"/><path id="Trazado_100" data-name="Trazado 100" class="cls-2" d="M48.81,36.12h3.85c1,0,1.57.51,1.58,1.31a1.38,1.38,0,0,1-1.4,1.37H44.92A1.41,1.41,0,0,1,43.51,38a1.25,1.25,0,0,1,.15-1.37,1.4,1.4,0,0,1,1.24-.51C46.2,36.13,47.5,36.12,48.81,36.12Z"/><path id="Trazado_101" data-name="Trazado 101" class="cls-2" d="M48.83,30.8c1.28,0,2.56,0,3.85,0,1,0,1.57.52,1.57,1.32s-.61,1.34-1.57,1.34H44.91a1.38,1.38,0,0,1-1.53-1.19c0-.06,0-.12,0-.18,0-.78.6-1.28,1.54-1.29C46.21,30.79,47.52,30.8,48.83,30.8Z"/><path id="Trazado_102" data-name="Trazado 102" class="cls-2" d="M49.17,44a1.36,1.36,0,0,1,1.36,1.27,1.33,1.33,0,0,1-2.65.12h0A1.34,1.34,0,0,1,49.17,44Z"/><path id="Trazado_103" data-name="Trazado 103" class="cls-2" d="M66,31.12c-.6,1-.55,1.43.25,2.22,1,1,1.92,2,2.92,2.9.34.33.32.51,0,.8A12,12,0,0,0,68,38.16c-.26.31-.43.32-.72,0-1-1-1.93-2-2.9-2.91s-1.23-.88-2.25-.3l-1.41-5.24Z"/><path id="Trazado_104" data-name="Trazado 104" class="cls-2" d="M34.61,19c1.1,0,2.21,0,3.32,0,.71,0,.9.2.91.91V23.8c0,.69-.23.92-.92.92-2.23,0-4.47,0-6.7,0-.6,0-.88-.27-.88-.89,0-1.33,0-2.65,0-4,0-.63.28-.89.89-.88Z"/><path id="Trazado_105" data-name="Trazado 105" class="cls-2" d="M34.56,37.78a2.87,2.87,0,1,1,2.9-2.84A2.86,2.86,0,0,1,34.56,37.78Z"/></g></svg>