<svg id="Capa_1" data-name="Capa 1" xmlns="http://www.w3.org/2000/svg" viewBox="0 0 105.8 70.2"><defs><style>.cls-1{fill:#fff;}</style></defs><g id="Grupo_106" data-name="Grupo 106"><g id="Grupo_87" data-name="Grupo 87"><path id="Trazado_63" data-name="Trazado 63" class="cls-1" d="M82.27,13.19V36.51c-.28,2.1-2.69,3.2-4.88,3.2H58.51a7.05,7.05,0,0,1-2.28-.35,3.89,3.89,0,0,1-3-3.68c-.06-1.09,0-2.17,0-3.25V14.24A3.72,3.72,0,0,1,54.78,11a4.53,4.53,0,0,1,2.45-.9H78.34A4.29,4.29,0,0,1,82,12.25,7.84,7.84,0,0,1,82.27,13.19Z"/><path id="Trazado_64" data-name="Trazado 64" class="cls-1" d="M82.27,57.57c-.21.1-.17.28-.24.43a4.52,4.52,0,0,1-4.25,2.51q-9.89,0-19.8,0c-2.5,0-4.48-1.59-4.51-3.65q-.07-4.74,0-9.48c0-2.08,2-3.64,4.58-3.65q9.81,0,19.62,0c2.31,0,4,1.19,4.5,3,0,0,.06.07.09.11Z"/><path id="Trazado_65" data-name="Trazado 65" class="cls-1" d="M44.34,10.13a11.59,11.59,0,0,1,1.19.33c1.74.68,2.68,1.82,2.7,3.36,0,3.13,0,6.27,0,9.4,0,2.13-2,3.7-4.64,3.71q-9.75,0-19.51,0c-2.71,0-4.64-1.62-4.65-3.8q0-4.53,0-9.06c0-2.05,1.24-3.33,3.74-3.87,0,0,0,0,.07-.07Z"/><path id="Trazado_66" data-name="Trazado 66" class="cls-1" d="M19.43,45.81V35.08c0-2.42,1.92-4,4.94-4h19c3,0,4.91,1.56,4.91,3.95v21.5c0,2.41-1.93,4-5,4H24.39c-3.07,0-5-1.52-5-4Z"/></g></g></svg>