<svg id="Capa_1" data-name="Capa 1" xmlns="http://www.w3.org/2000/svg" viewBox="0 0 64.8 58.64"><defs><style>.cls-1{fill:#fff;opacity:0.7;isolation:isolate;}</style></defs><path id="Trazado_15" data-name="Trazado 15" class="cls-1" d="M31.63,9.62h1.54c.63.11,1.27.18,1.88.32a11.48,11.48,0,0,1,8.82,10.92c0,1,0,2.08,0,3.11,0,.14,0,.27,0,.42h2.16c.83,0,1.11.28,1.11,1.11v20A3.31,3.31,0,0,1,44.08,49a3.09,3.09,0,0,1-.43,0H21.15a3.3,3.3,0,0,1-3.52-3.07,3.23,3.23,0,0,1,0-.44v-20c0-.83.28-1.11,1.11-1.11h2.18v-3a11.5,11.5,0,0,1,8.35-11.28C30,9.86,30.84,9.77,31.63,9.62ZM39,24.38c0-1.18,0-2.34,0-3.49a6,6,0,0,0-1.35-3.76,6.55,6.55,0,0,0-11.52,2.29,19.15,19.15,0,0,0-.22,4.9s0,0,.05.06ZM32.36,42.45H33.9a.88.88,0,0,0,1-.77.93.93,0,0,0,0-.33c-.16-1.41-.32-2.82-.46-4.24a.48.48,0,0,1,.12-.35,3.26,3.26,0,1,0-4.23,0,.57.57,0,0,1,.14.42c-.14,1.4-.3,2.8-.45,4.2a.86.86,0,0,0,.61,1.07.93.93,0,0,0,.33,0Z"/></svg>