<svg id="Capa_1" data-name="Capa 1" xmlns="http://www.w3.org/2000/svg" viewBox="0 0 105.8 70.2"><defs><style>.cls-1{fill:#fff;}</style></defs><g id="Icono_Usuarios" data-name="Icono Usuarios"><path id="Trazado_14" data-name="Trazado 14" class="cls-1" d="M29.94,37.25c-1.6,0-3.19,0-4.79,0a10.29,10.29,0,0,0-9.8,6.84c-.24.65-.4,1.34-.6,2V59.58a1,1,0,0,1,.1.17A6,6,0,0,0,20.75,65c2.93.08,5.87,0,8.81,0,.36,0,.43-.1.33-.43a8.71,8.71,0,0,1-.26-2.54V42.9a15.4,15.4,0,0,1,.73-5.13C30.52,37.28,30.36,37.24,29.94,37.25Z"/><path id="Trazado_15" data-name="Trazado 15" class="cls-1" d="M56.53,31.94c-4.16,0-8.33,0-12.5,0a9.62,9.62,0,0,0-2.2.23,10.21,10.21,0,0,0-8.07,10.17c0,6.74,0,13.47,0,20.2,0,1.75.73,2.47,2.49,2.47H64.44a2.08,2.08,0,0,0,2.4-2.35V42.37a10.28,10.28,0,0,0-10.1-10.44h-.21Z"/><path id="Trazado_16" data-name="Trazado 16" class="cls-1" d="M50.33,29.38A12.33,12.33,0,1,0,38,17,12.33,12.33,0,0,0,50.33,29.38Z"/><path id="Trazado_17" data-name="Trazado 17" class="cls-1" d="M85.83,47.24a10.18,10.18,0,0,0-8.29-9.77c-2.34-.43-4.71-.14-7.06-.22-.47,0-.32.25-.24.49A16.91,16.91,0,0,1,71,43.07c0,5.78,0,11.56,0,17.35A15.07,15.07,0,0,1,70.63,65l.24,0c3,0,6,.06,8.94,0a6.07,6.07,0,0,0,6-6.12v0C85.89,55,85.9,51.1,85.83,47.24Z"/><path id="Trazado_18" data-name="Trazado 18" class="cls-1" d="M28.62,34.67a9.23,9.23,0,1,0-9.23-9.22h0A9.28,9.28,0,0,0,28.62,34.67Z"/><path id="Trazado_19" data-name="Trazado 19" class="cls-1" d="M72,34.67a9.23,9.23,0,1,0-9.27-9.24A9.21,9.21,0,0,0,72,34.67Z"/></g></svg>