<svg id="Capa_1" data-name="Capa 1" xmlns="http://www.w3.org/2000/svg" viewBox="0 0 64.8 58.64"><defs><style>.cls-1{fill:#fff;}</style></defs><g id="Grupo_97" data-name="Grupo 97"><path id="Trazado_159" data-name="Trazado 159" class="cls-1" d="M47.54,16.57c-.73-.77-1.47-1.55-2.28-2.26a2.88,2.88,0,0,0-2-.73v0h-.56c0,.08-.1,0-.15.06a3.44,3.44,0,0,0-2,1l-2.23,2.23c-.12.12-.14.18,0,.32l6.56,6.56c.14.14.21.12.32,0a1.88,1.88,0,0,1,.24-.25c.38-.38.76-.77,1.15-1.14a5.25,5.25,0,0,0,1.87-2.79v-1A3.11,3.11,0,0,0,47.54,16.57Z"/><path id="Trazado_160" data-name="Trazado 160" class="cls-1" d="M36.35,19.11c-.16-.16-.23-.14-.38,0Q27.3,27.8,18.62,36.46a1.11,1.11,0,0,0-.3.54c-.3,1.22-.6,2.44-.91,3.66l-1,4a.7.7,0,0,0,.45.88.54.54,0,0,0,.25,0l.17,0L25,43.62a1.15,1.15,0,0,0,.53-.31Q34.17,34.64,42.85,26c.14-.14.17-.22,0-.38Q39.59,22.38,36.35,19.11Z"/></g></svg>