<svg id="Capa_1" data-name="Capa 1" xmlns="http://www.w3.org/2000/svg" viewBox="0 0 105.8 70.2"><defs><style>.cls-1{fill:#fff;}</style></defs><g id="Grupo_109" data-name="Grupo 109"><path id="Trazado_130" data-name="Trazado 130" class="cls-1" d="M60.72,38.08A16.06,16.06,0,0,0,42.83,60.72c-.51.05-1,.1-1.47.13a25.07,25.07,0,0,1-14.9-3.39c-6.11-3.77-9-9.31-8.18-16.46A34.25,34.25,0,0,1,29.37,19.25,4.86,4.86,0,0,1,33,17.85c4.82.1,9.65,0,14.47,0a2.3,2.3,0,0,1,1.49.51,32.3,32.3,0,0,1,8.89,11.44,35.34,35.34,0,0,1,2.78,7.86A2.5,2.5,0,0,1,60.72,38.08Z"/><path id="Trazado_131" data-name="Trazado 131" class="cls-1" d="M71.05,53.76A13.76,13.76,0,1,1,57.32,40h.13A13.76,13.76,0,0,1,71.05,53.76ZM58.18,60.54l.37,0a4,4,0,1,0-.21-7.91h-.08c-.85,0-1.7,0-2.56,0A1.62,1.62,0,0,1,54,51s0,0,0-.07a1.6,1.6,0,0,1,1.54-1.67h.1c.95,0,1.89,0,2.84,0a1.61,1.61,0,0,1,1.64,1.54c.13.89.6,1.31,1.32,1.21s1-.66,1-1.5A3.94,3.94,0,0,0,58.82,47l-.64-.09c0-.67,0-1.28,0-1.9,0-.83-.44-1.35-1.12-1.36s-1.13.53-1.15,1.34c0,.64,0,1.27,0,1.93l-.54.08a3.93,3.93,0,0,0,.27,7.85c.9,0,1.8,0,2.7,0a1.68,1.68,0,1,1,.24,3.36h-.24q-1.25,0-2.49,0A1.73,1.73,0,0,1,54,56.68s0-.09,0-.13c-.12-.78-.61-1.22-1.26-1.14a1.21,1.21,0,0,0-1,1.37v0a4,4,0,0,0,2.86,3.52c.43.11.88.15,1.37.24,0,.61,0,1.22,0,1.83,0,.89.44,1.4,1.16,1.38s1.1-.48,1.11-1.35c0-.61,0-1.22,0-1.89Z"/><path id="Trazado_132" data-name="Trazado 132" class="cls-1" d="M39.75,12.23c-2.29,0-4.59,0-6.88,0a1,1,0,0,1-1-.61c-1-2-2-4-2.94-6A4.87,4.87,0,0,1,28.53,4c-.07-.9.36-1.3,1.26-1.31a18,18,0,0,1,5.5.87,17.21,17.21,0,0,0,9.57-.16,28.41,28.41,0,0,1,4.68-.69c1.06-.1,1.57.46,1.35,1.52a14.49,14.49,0,0,1-1,3.15c-.7,1.52-1.55,3-2.39,4.42a1.09,1.09,0,0,1-.78.4C44.38,12.25,42.06,12.23,39.75,12.23Z"/><path id="Trazado_133" data-name="Trazado 133" class="cls-1" d="M74.38,23.55a31.84,31.84,0,0,1,10.21,1.38,10.86,10.86,0,0,1,2.35,1.14c.66.41.67.85,0,1.25a13.2,13.2,0,0,1-2.6,1.24,31.58,31.58,0,0,1-9.8,1.31A32,32,0,0,1,64,28.42a10.46,10.46,0,0,1-1.8-.82c-1.13-.66-1.17-1.2,0-1.78a19.67,19.67,0,0,1,3.57-1.34A33.11,33.11,0,0,1,74.38,23.55Z"/><path id="Trazado_134" data-name="Trazado 134" class="cls-1" d="M61.34,30a39.19,39.19,0,0,0,26.05,0c.15,1.41,0,1.66-1.31,2.33a18.63,18.63,0,0,1-6,1.62,40.2,40.2,0,0,1-13.62-.4,20.56,20.56,0,0,1-3.82-1.25C61.28,31.7,61.18,31.36,61.34,30Z"/><path id="Trazado_135" data-name="Trazado 135" class="cls-1" d="M87.39,34.39c.15,1.42,0,1.68-1.33,2.34a18.61,18.61,0,0,1-5.86,1.59,40.51,40.51,0,0,1-13.76-.4,21.44,21.44,0,0,1-3.76-1.22c-1.37-.57-1.49-.91-1.34-2.31A39.32,39.32,0,0,0,87.39,34.39Z"/><path id="Trazado_136" data-name="Trazado 136" class="cls-1" d="M66,40.24c7.25,1.11,14.4,1.24,21.34-1.51.19,1.42,0,1.73-1.23,2.36a21.06,21.06,0,0,1-7.32,1.81,45.06,45.06,0,0,1-8.92,0,2.35,2.35,0,0,1-1.55-.7C67.64,41.52,66.83,40.91,66,40.24Z"/><path id="Trazado_137" data-name="Trazado 137" class="cls-1" d="M70.94,45.31c5.64.18,11.17.11,16.4-2.22.27,1.35.11,1.75-1.1,2.37a18.14,18.14,0,0,1-6.81,1.78c-2.26.2-4.53.18-6.8.27a.78.78,0,0,1-.85-.56C71.56,46.41,71.25,45.91,70.94,45.31Z"/><path id="Trazado_138" data-name="Trazado 138" class="cls-1" d="M73.1,56.44c.06-.64.1-1.24.15-1.85s.42-.33.69-.36c2.71-.22,5.43-.31,8.11-.72a33.8,33.8,0,0,0,5-1.5l.33-.11c.17,1.68,0,2-1.46,2.67a19.26,19.26,0,0,1-6.42,1.61c-2,.19-3.92.22-5.88.31A4.8,4.8,0,0,1,73.1,56.44Z"/><path id="Trazado_139" data-name="Trazado 139" class="cls-1" d="M72.84,49.83c5,0,9.91-.21,14.5-2.33.26,1.41.1,1.78-1.16,2.41a19.48,19.48,0,0,1-6.9,1.77c-1.81.18-3.64.18-5.46.29-.47,0-.68-.14-.73-.62S72.93,50.38,72.84,49.83Z"/><path id="Trazado_140" data-name="Trazado 140" class="cls-1" d="M45.94,14.56v1H33.51v-1Z"/></g></svg>