<svg id="Capa_1" data-name="Capa 1" xmlns="http://www.w3.org/2000/svg" viewBox="0 0 105.8 70.2"><defs><style>.cls-1{fill:#fff;fill-rule:evenodd;}</style></defs><path id="Trazado_3" data-name="Trazado 3" class="cls-1" d="M45.9,57.61c7.74-12-.16,0,7.72-11.87,1.78-2.68,2.18-4.87.36-7.54a34.2,34.2,0,0,1-2-3.86c-.25.08-.5.09-.58.2C38.47,56,34.06,62.41,33.81,62.82,34,62.93,45.46,58.29,45.9,57.61Z"/><path id="Trazado_4" data-name="Trazado 4" class="cls-1" d="M45.9,57.61c7.74-12-.16,0,7.72-11.87,1.78-2.68,2.18-4.87.36-7.54a34.2,34.2,0,0,1-2-3.86c-.25.08-.5.09-.58.2C38.47,56,34.07,62.41,33.81,62.82,34,62.93,45.46,58.29,45.9,57.61Z"/><path id="Trazado_5" data-name="Trazado 5" class="cls-1" d="M80.5,62.17c-6-13.44-13-28.55-19.41-42.72-2,2.91-4.68,7.41-6,9.61-.49.79.86,3.63,1.39,4.66,2.36,4.65,4.57,8.87,7.07,13.44A23.48,23.48,0,0,0,65.47,50c5.16,6.24,5.55,7.3,10.08,12.32C76,62.29,80,62.23,80.5,62.17Z"/><path id="Trazado_6" data-name="Trazado 6" class="cls-1" d="M80.5,62.17c-6-13.44-13-28.55-19.4-42.72-2,2.91-4.68,7.41-6,9.61-.48.79.87,3.63,1.39,4.66,2.37,4.65,4.57,8.87,7.08,13.44A22.3,22.3,0,0,0,65.47,50c5.16,6.24,5.55,7.3,10.09,12.32C76,62.29,80,62.23,80.5,62.17Z"/><path id="Trazado_7" data-name="Trazado 7" class="cls-1" d="M56.5,8a6.2,6.2,0,0,1-2.28.79,4,4,0,0,1-1.58-.2A4.35,4.35,0,0,0,49.2,9a11.06,11.06,0,0,0-3.15,2.63C43.27,14.81,25.28,58,23.2,62.18c.06,0,5.4.12,5.45,0,7.75-10.8,25.85-42.07,30.13-48,1.9-2.62,2.64-2.76,4.68-1.41C64.05,8.73,60.22,6.1,56.5,8Z"/></svg>